<svg width="20" height="16" viewBox="0 0 20 16" fill="none" xmlns="http://www.w3.org/2000/svg">
<path d="M3.31666 5.00987C2.53704 5.88401 1.95651 6.90212 1.61166 8C2.68833 11.4343 6.03666 13.9375 10 13.9375C10.8275 13.9375 11.6275 13.8282 12.3858 13.6248M5.19 3.4305C6.6172 2.53581 8.29007 2.06003 10 2.0625C13.9633 2.0625 17.3108 4.56575 18.3875 7.99842C17.7975 9.87414 16.5309 11.4925 14.81 12.5695M5.19 3.4305L2.5 0.875M5.19 3.4305L8.23166 6.32008M14.81 12.5695L17.5 15.125M14.81 12.5695L11.7683 9.67992C12.0005 9.45936 12.1847 9.19752 12.3103 8.90935C12.436 8.62117 12.5006 8.31231 12.5006 8.0004C12.5006 7.68848 12.436 7.37962 12.3103 7.09145C12.1847 6.80327 12.0005 6.54143 11.7683 6.32087C11.5362 6.10032 11.2605 5.92536 10.9572 5.806C10.6539 5.68663 10.3287 5.62519 10.0004 5.62519C9.67208 5.62519 9.34696 5.68663 9.04362 5.806C8.74028 5.92536 8.46466 6.10032 8.2325 6.32087M11.7675 9.67913L8.23333 6.32167" stroke="#9EAAC2" stroke-width="1.5" stroke-linecap="round" stroke-linejoin="round"/>
</svg>
