<svg width="12" height="12" viewBox="0 0 12 12" fill="none" xmlns="http://www.w3.org/2000/svg">
<path d="M7.83333 11.5L4.16667 10.2167L1.325 11.3167C1.1213 11.3981 0.93287 11.3753 0.759722 11.2482C0.586574 11.1211 0.5 10.9504 0.5 10.7361V2.18056C0.5 2.04815 0.538296 1.93102 0.614889 1.82917C0.691481 1.72731 0.795778 1.65093 0.927778 1.6L4.16667 0.5L7.83333 1.78333L10.675 0.683333C10.8787 0.601852 11.0671 0.62487 11.2403 0.752389C11.4134 0.879907 11.5 1.05041 11.5 1.26389V9.81944C11.5 9.95185 11.4619 10.069 11.3857 10.1708C11.3095 10.2727 11.205 10.3491 11.0722 10.4L7.83333 11.5ZM7.22222 10.0028V2.85278L4.77778 1.99722V9.14722L7.22222 10.0028Z" fill="#5D6E8B"/>
</svg>
