<svg width="14" height="10" viewBox="0 0 14 10" fill="none" xmlns="http://www.w3.org/2000/svg">
<path d="M3.30557 0.196991C3.25132 0.141645 3.1867 0.0975301 3.1154 0.0671668C3.04411 0.0368034 2.96752 0.0207868 2.89003 0.0200322C2.81254 0.0192777 2.73566 0.0337999 2.66378 0.0627691C2.5919 0.0917383 2.52644 0.134587 2.47113 0.188866C1.84546 0.810899 1.34916 1.55066 1.01085 2.36548C0.672538 3.1803 0.498918 4.05404 0.500005 4.9363C0.49899 5.85241 0.686274 6.75895 1.05023 7.59966C1.41419 8.44037 1.94705 9.19731 2.61575 9.82348C2.7283 9.92752 2.87697 9.9836 3.03019 9.97981C3.18341 9.97601 3.32912 9.91265 3.43638 9.80317C3.69313 9.54642 3.66144 9.13774 3.41444 8.9013C2.87778 8.38986 2.45073 7.77463 2.15922 7.09302C1.86772 6.4114 1.71786 5.67763 1.71875 4.9363C1.71875 3.43643 2.32082 2.0763 3.29744 1.08668C3.53307 0.84699 3.55744 0.448866 3.30557 0.196991ZM4.73638 1.62943C4.62937 1.51932 4.48308 1.45613 4.32956 1.45369C4.17605 1.45125 4.02782 1.50977 3.91738 1.61643C3.47777 2.05027 3.12884 2.5672 2.89087 3.13714C2.65291 3.70709 2.53066 4.31867 2.53125 4.9363C2.53125 6.31105 3.12438 7.54686 4.06931 8.40161C4.18093 8.50003 4.32614 8.55172 4.47484 8.54597C4.62353 8.54023 4.76432 8.47748 4.868 8.37074C5.1345 8.10424 5.08494 7.68499 4.83469 7.44936C4.49166 7.12691 4.21841 6.73752 4.03185 6.30527C3.84528 5.87302 3.74935 5.40709 3.75 4.9363C3.75 4.00193 4.12131 3.15368 4.725 2.5313C4.95738 2.29243 4.99556 1.8878 4.73638 1.62943ZM9.26362 1.62861C9.37063 1.51851 9.51692 1.45532 9.67044 1.45288C9.82395 1.45044 9.97218 1.50896 10.0826 1.61562C10.5223 2.04955 10.8713 2.56661 11.1093 3.13671C11.3473 3.7068 11.4694 4.31853 11.4687 4.9363C11.4687 6.31105 10.8756 7.54686 9.93069 8.40161C9.81907 8.50003 9.67386 8.55172 9.52516 8.54597C9.37647 8.54023 9.23568 8.47748 9.132 8.37074C8.8655 8.10424 8.91506 7.68499 9.16531 7.44936C9.50834 7.12691 9.78159 6.73752 9.96815 6.30527C10.1547 5.87302 10.2506 5.40709 10.25 4.9363C10.25 4.00193 9.87869 3.15368 9.275 2.5313C9.04262 2.29243 9.00444 1.88699 9.26362 1.62861ZM10.6944 0.196991C10.7487 0.141645 10.8133 0.0975301 10.8846 0.0671668C10.9559 0.0368034 11.0325 0.0207868 11.11 0.0200322C11.1875 0.0192777 11.2643 0.0337999 11.3362 0.0627691C11.4081 0.0917383 11.4736 0.134587 11.5289 0.188866C12.1545 0.810899 12.6508 1.55066 12.9892 2.36548C13.3275 3.1803 13.5011 4.05404 13.5 4.9363C13.501 5.85241 13.3137 6.75895 12.9498 7.59966C12.5858 8.44037 12.0529 9.19731 11.3842 9.82348C11.2717 9.92752 11.123 9.9836 10.9698 9.97981C10.8166 9.97601 10.6709 9.91265 10.5636 9.80317C10.3069 9.54642 10.3386 9.13774 10.5864 8.9013C11.1229 8.38979 11.5498 7.77453 11.8411 7.09292C12.1325 6.41131 12.2822 5.67757 12.2812 4.9363C12.2812 3.43643 11.6792 2.0763 10.7026 1.08668C10.4669 0.84699 10.4426 0.448866 10.6944 0.196991ZM7 3.71755C6.67677 3.71755 6.36677 3.84595 6.13821 4.07451C5.90965 4.30307 5.78125 4.61307 5.78125 4.9363C5.78125 5.25953 5.90965 5.56953 6.13821 5.79809C6.36677 6.02665 6.67677 6.15505 7 6.15505C7.32323 6.15505 7.63323 6.02665 7.86179 5.79809C8.09035 5.56953 8.21875 5.25953 8.21875 4.9363C8.21875 4.61307 8.09035 4.30307 7.86179 4.07451C7.63323 3.84595 7.32323 3.71755 7 3.71755Z" fill="#5D6E8B"/>
</svg>
