<svg width="14" height="16" viewBox="0 0 14 16" fill="none" xmlns="http://www.w3.org/2000/svg">
<path d="M9.0628 11.9544C10.4078 11.7828 11.7294 11.4407 13 10.9353C11.9239 9.65087 11.3293 7.98126 11.3317 6.25082V5.70629V5.6674C11.3317 4.42953 10.8754 3.24236 10.0631 2.36705C9.2508 1.49174 8.14911 1 7.00036 1C5.85162 1 4.74992 1.49174 3.93764 2.36705C3.12535 3.24236 2.66901 4.42953 2.66901 5.6674V6.25082C2.67119 7.98136 2.07633 9.65099 1 10.9353C2.25104 11.4332 3.56993 11.7794 4.93792 11.9544M9.0628 11.9544C7.69264 12.1295 6.30808 12.1295 4.93792 11.9544M9.0628 11.9544C9.16683 12.3043 9.1927 12.6758 9.13831 13.0386C9.08391 13.4013 8.95079 13.7451 8.74978 14.0419C8.54877 14.3388 8.28555 14.5803 7.98155 14.7467C7.67755 14.9132 7.34137 15 7.00036 15C6.65936 15 6.32317 14.9132 6.01917 14.7467C5.71517 14.5803 5.45196 14.3388 5.25094 14.0419C5.04993 13.7451 4.91681 13.4013 4.86242 13.0386C4.80802 12.6758 4.83389 12.3043 4.93792 11.9544" stroke="#5D6E8B" stroke-width="0.8" stroke-linecap="round" stroke-linejoin="round"/>
</svg>
