<svg width="13" height="16" viewBox="0 0 13 16" fill="none" xmlns="http://www.w3.org/2000/svg">
<path d="M9.00033 4C9.00033 4.66304 8.73691 5.29892 8.268 5.76776C7.7991 6.2366 7.16313 6.5 6.5 6.5C5.83687 6.5 5.2009 6.2366 4.732 5.76776C4.26309 5.29892 3.99967 4.66304 3.99967 4C3.99967 3.33696 4.26309 2.70107 4.732 2.23223C5.2009 1.76339 5.83687 1.5 6.5 1.5C7.16313 1.5 7.7991 1.76339 8.268 2.23223C8.73691 2.70107 9.00033 3.33696 9.00033 4ZM1.5 13.412C1.52143 12.1002 2.05763 10.8494 2.99298 9.92936C3.92833 9.00928 5.18788 8.49364 6.5 8.49364C7.81212 8.49364 9.07166 9.00928 10.007 9.92936C10.9424 10.8494 11.4786 12.1002 11.5 13.412C9.93138 14.1312 8.22566 14.5023 6.5 14.5C4.71576 14.5 3.0222 14.1107 1.5 13.412Z" stroke="#51A7FC" stroke-width="1.5" stroke-linecap="round" stroke-linejoin="round"/>
</svg>
