<svg width="14" height="14" viewBox="0 0 14 14" fill="none" xmlns="http://www.w3.org/2000/svg">
<path d="M3.66667 1.99999H2.33333C1.97971 1.99999 1.64057 2.14047 1.39052 2.39051C1.14048 2.64056 1 2.9797 1 3.33332V11.3333C1 11.6869 1.14048 12.0261 1.39052 12.2761C1.64057 12.5262 1.97971 12.6667 2.33333 12.6667H6.13133M3.66667 1.99999C3.66667 1.64637 3.80714 1.30723 4.05719 1.05718C4.30724 0.807132 4.64638 0.666656 5 0.666656H6.33333C6.68696 0.666656 7.02609 0.807132 7.27614 1.05718C7.52619 1.30723 7.66667 1.64637 7.66667 1.99999M3.66667 1.99999C3.66667 2.35361 3.80714 2.69275 4.05719 2.9428C4.30724 3.19285 4.64638 3.33332 5 3.33332H6.33333C6.68696 3.33332 7.02609 3.19285 7.27614 2.9428C7.52619 2.69275 7.66667 2.35361 7.66667 1.99999M10.3333 7.99999V10.6667H13M10.3333 7.99999C11.0406 7.99999 11.7189 8.28094 12.219 8.78104C12.719 9.28114 13 9.95941 13 10.6667M10.3333 7.99999C9.62609 7.99999 8.94781 8.28094 8.44772 8.78104C7.94762 9.28114 7.66667 9.95941 7.66667 10.6667C7.66667 11.3739 7.94762 12.0522 8.44772 12.5523C8.94781 13.0524 9.62609 13.3333 10.3333 13.3333C11.0406 13.3333 11.7189 13.0524 12.219 12.5523C12.719 12.0522 13 11.3739 13 10.6667M10.3333 5.99999V3.33332C10.3333 2.9797 10.1929 2.64056 9.94281 2.39051C9.69276 2.14047 9.35362 1.99999 9 1.99999H7.66667M3.66667 5.99999H6.33333M3.66667 8.66666H5.66667" stroke="#5D6E8B" stroke-width="1.33333" stroke-linecap="round" stroke-linejoin="round"/>
</svg>
