<svg width="22" height="18" viewBox="0 0 22 18" fill="none" xmlns="http://www.w3.org/2000/svg">
<path d="M9.37181 12.7188C9.79178 13.1438 10.3342 13.352 10.9992 13.3435C11.6641 13.335 12.1541 13.0913 12.4691 12.6125L18.3486 3.6875L9.5293 9.6375C9.05684 9.95625 8.80766 10.4432 8.78176 11.0984C8.75586 11.7536 8.95255 12.2937 9.37181 12.7188ZM10.9992 0.5C12.0316 0.5 13.0248 0.645917 13.9789 0.93775C14.9329 1.22958 15.8295 1.66804 16.6688 2.25313L14.6739 3.52812C14.0964 3.22708 13.4973 3.00148 12.8764 2.85131C12.2556 2.70115 11.6298 2.62571 10.9992 2.625C8.67187 2.625 6.68997 3.45304 5.0535 5.10913C3.41702 6.76521 2.59914 8.7705 2.59984 11.125C2.59984 11.8687 2.70063 12.6036 2.90221 13.3297C3.1038 14.0557 3.38798 14.7375 3.75475 15.375H18.2436C18.6461 14.7021 18.9394 14.0026 19.1235 13.2766C19.3075 12.5505 19.3992 11.7979 19.3985 11.0187C19.3985 10.3812 19.324 9.76146 19.1749 9.15937C19.0258 8.55729 18.8029 7.97292 18.5061 7.40625L19.766 5.3875C20.291 6.21979 20.7067 7.10521 21.0133 8.04375C21.3199 8.98229 21.4816 9.95625 21.4984 10.9656C21.5152 11.975 21.4014 12.9401 21.1572 13.8609C20.9129 14.7818 20.5541 15.6583 20.081 16.4906C19.8885 16.8094 19.626 17.0573 19.2935 17.2344C18.9611 17.4115 18.6111 17.5 18.2436 17.5H3.75475C3.38728 17.5 3.0373 17.4115 2.70483 17.2344C2.37236 17.0573 2.10988 16.8094 1.91739 16.4906C1.46243 15.6937 1.11245 14.8484 0.867472 13.9544C0.62249 13.0605 0.5 12.1174 0.5 11.125C0.5 9.65521 0.775779 8.27856 1.32734 6.99506C1.87889 5.71156 2.63134 4.58708 3.58466 3.62163C4.53799 2.65617 5.65335 1.89471 6.93075 1.33725C8.20815 0.779792 9.5643 0.500708 10.9992 0.5Z" fill="#108AC5"/>
</svg>
