<svg width="12" height="12" viewBox="0 0 12 12" fill="none" xmlns="http://www.w3.org/2000/svg">
<path d="M1.125 6.60938C1.125 6.273 1.398 6 1.73438 6H2.95313C3.2895 6 3.5625 6.273 3.5625 6.60938V10.2656C3.5625 10.602 3.2895 10.875 2.95313 10.875H1.73438C1.57276 10.875 1.41776 10.8108 1.30348 10.6965C1.1892 10.5822 1.125 10.4272 1.125 10.2656V6.60938ZM4.78125 4.17188C4.78125 3.8355 5.05425 3.5625 5.39063 3.5625H6.60938C6.94575 3.5625 7.21875 3.8355 7.21875 4.17188V10.2656C7.21875 10.602 6.94575 10.875 6.60938 10.875H5.39063C5.22901 10.875 5.07401 10.8108 4.95973 10.6965C4.84545 10.5822 4.78125 10.4272 4.78125 10.2656V4.17188ZM8.4375 1.73438C8.4375 1.398 8.7105 1.125 9.04688 1.125H10.2656C10.602 1.125 10.875 1.398 10.875 1.73438V10.2656C10.875 10.602 10.602 10.875 10.2656 10.875H9.04688C8.88526 10.875 8.73026 10.8108 8.61598 10.6965C8.5017 10.5822 8.4375 10.4272 8.4375 10.2656V1.73438Z" stroke="white" stroke-width="0.8" stroke-linecap="round" stroke-linejoin="round"/>
</svg>
